<svg width="259" height="82" viewBox="0 0 259 82" fill="none" xmlns="http://www.w3.org/2000/svg">
<path d="M35.527 31.1482C35.8965 31.1474 36.2507 31.0002 36.5121 30.739C36.7735 30.4778 36.9209 30.1238 36.9219 29.7542V23.5984C36.9209 23.2287 36.7736 22.8744 36.5122 22.6131C36.2508 22.3517 35.8966 22.2045 35.527 22.2034H33.6064C33.5305 22.218 33.4533 22.2254 33.376 22.2256H29.1932C29.1399 22.2272 29.0865 22.2248 29.0335 22.2186C28.6945 22.1766 28.3823 22.0128 28.1552 21.7576C27.9281 21.5024 27.8016 21.1733 27.7993 20.8317V17.3666C27.7924 17.0016 27.6425 16.6538 27.3818 16.3982C27.1211 16.1426 26.7704 15.9996 26.4053 15.9999H22.2185C21.8492 16.001 21.4952 16.1483 21.2341 16.4095C20.9729 16.6706 20.8257 17.0245 20.8246 17.3939V21.0126C20.8259 21.3818 20.9732 21.7357 21.2343 21.9969C21.4955 22.258 21.8493 22.4052 22.2185 22.4065H26.4013C26.771 22.4065 27.1255 22.5534 27.387 22.8148C27.6484 23.0762 27.7952 23.4308 27.7952 23.8005V29.6076C27.7952 29.9773 27.6484 30.3319 27.387 30.5933C27.1255 30.8547 26.771 31.0016 26.4013 31.0016H17.3939C17.0245 31.0026 16.6706 31.1498 16.4094 31.411C16.1482 31.6722 16.001 32.0262 16 32.3955V40.7469C16.0008 41.1164 16.1478 41.4706 16.4091 41.732C16.6703 41.9934 17.0243 42.1408 17.3939 42.1418H26.4013C26.5844 42.1418 26.7658 42.1057 26.935 42.0356C27.1042 41.9655 27.2579 41.8627 27.3873 41.7332C27.5168 41.6036 27.6194 41.4498 27.6894 41.2806C27.7594 41.1113 27.7954 40.93 27.7952 40.7469V32.541C27.7963 32.1715 27.9435 31.8176 28.2046 31.5562C28.4658 31.2949 28.8197 31.1474 29.1891 31.1461L35.527 31.1482Z" fill="url(#paint0_linear_653_3459)"/>
<path d="M58.3099 23.5012H44.3394C43.7666 23.5031 43.2178 23.7316 42.8129 24.1367C42.408 24.5418 42.1798 25.0907 42.1782 25.6634V39.6825C42.1798 40.2034 41.9907 40.7069 41.6466 41.0979C41.3024 41.489 40.8271 41.7405 40.3102 41.8052C40.2203 41.8198 40.1294 41.8269 40.0383 41.8264H30.5851C30.0676 41.891 29.5914 42.1423 29.2462 42.5332C28.9009 42.9241 28.7102 43.4276 28.7101 43.9491V53.4034C28.7101 53.9729 28.9362 54.5191 29.3388 54.9219C29.7414 55.3247 30.2875 55.5511 30.857 55.5514H40.0383C40.606 55.5514 41.1503 55.7768 41.5518 56.1781C41.9533 56.5793 42.179 57.1237 42.1792 57.6913V62.2582C42.1783 62.6383 42.2525 63.0149 42.3976 63.3662C42.5426 63.7176 42.7557 64.0368 43.0246 64.3056C43.2934 64.5743 43.6127 64.7872 43.9641 64.9322C44.3155 65.0771 44.6921 65.1511 45.0722 65.1501H49.4501C49.83 65.1505 50.2063 65.076 50.5574 64.9308C50.9085 64.7856 51.2275 64.5726 51.4962 64.304C51.7649 64.0354 51.978 63.7165 52.1233 63.3655C52.2687 63.0144 52.3433 62.6381 52.343 62.2582V58.1027C52.3428 57.3354 52.0379 56.5997 51.4955 56.057C50.953 55.5144 50.2174 55.2092 49.4501 55.2087H44.87C44.3028 55.2076 43.7592 54.9818 43.3581 54.5808C42.957 54.1797 42.7312 53.6361 42.7301 53.0688V44.2848C42.7315 43.7176 42.9574 43.1741 43.3584 42.7731C43.7594 42.3721 44.3029 42.1462 44.87 42.1449H58.314C58.8871 42.1446 59.4368 41.9169 59.8422 41.5117C60.2476 41.1065 60.4756 40.5569 60.4761 39.9837V25.6644C60.476 25.3801 60.4198 25.0987 60.3109 24.8361C60.2019 24.5735 60.0423 24.335 59.8412 24.1341C59.64 23.9332 59.4012 23.7739 59.1385 23.6653C58.8758 23.5568 58.5942 23.501 58.3099 23.5012Z" fill="url(#paint1_linear_653_3459)"/>
<path d="M67.0656 56C67.4562 52.1198 67.7492 47.6601 67.9445 42.6211C68.1398 37.582 68.2375 33.1549 68.2375 29.3398C69.8 29.3659 71.1086 29.3789 72.1632 29.3789C73.2961 29.3789 74.4028 29.3593 75.4836 29.3203C76.5773 29.2812 77.7296 29.2617 78.9406 29.2617C80.451 29.2617 81.7987 29.3463 82.9836 29.5156C84.1815 29.6849 85.2427 30.0755 86.1671 30.6875C87.0916 31.2994 87.7752 32.0416 88.2179 32.914C88.6737 33.7864 88.9015 34.8021 88.9015 35.9609C88.9015 36.6901 88.8169 37.3867 88.6476 38.0508C88.4783 38.7018 88.2244 39.3203 87.8859 39.9062C87.5604 40.4791 87.1697 40.9869 86.714 41.4297C86.2583 41.8593 85.8026 42.2044 85.3468 42.4648C84.9041 42.7122 84.3963 42.9271 83.8234 43.1093C83.2505 43.2916 82.4822 43.513 81.5187 43.7734L82.8468 46.3515C83.2765 47.1718 84.0903 48.6432 85.2882 50.7656L87.2609 54.2226C87.3651 54.4049 87.6776 54.9974 88.1984 56C86.6099 55.9739 85.5617 55.9609 85.0539 55.9609C84.4289 55.9609 83.3286 55.9739 81.7531 56L79.5851 50.8047C79.2075 50.0104 78.7518 49.0729 78.2179 47.9922L75.8546 43.2461C75.6203 42.8034 75.2947 42.1393 74.8781 41.2539C75.7505 41.4101 76.5447 41.4883 77.2609 41.4883C78.3807 41.4883 79.4028 41.306 80.3273 40.9414C81.2518 40.5768 81.9614 40.0169 82.4562 39.2617C82.951 38.4935 83.1984 37.6601 83.1984 36.7617C83.1984 36.2148 83.0877 35.707 82.8664 35.2383C82.658 34.7695 82.3 34.3724 81.7921 34.0468C81.2843 33.7213 80.6789 33.513 79.9757 33.4218C79.2726 33.3307 78.5695 33.2851 77.8664 33.2851C77.4757 33.2851 76.9419 33.2916 76.2648 33.3047C75.5877 33.3177 74.7544 33.3242 73.7648 33.3242L73.4132 41.3515L73.0421 56L70.0148 55.9609C69.533 55.9609 68.55 55.9739 67.0656 56Z" fill="black"/>
<path d="M92.4039 56C93.758 53.6041 95.3466 50.6419 97.1695 47.1133L102.306 37.25C103.908 34.2031 105.236 31.5664 106.291 29.3398C107.983 29.3659 109.181 29.3789 109.884 29.3789C111.121 29.3789 112.332 29.3659 113.517 29.3398L116.31 37.3281L122.384 53.8515L123.224 56L120.294 55.9609C119.617 55.9609 118.478 55.9739 116.877 56C116.564 54.8411 116.069 53.2786 115.392 51.3125C114.728 49.3463 114.162 47.7513 113.693 46.5273H103.419C101.896 49.6263 100.412 52.7838 98.9664 56L95.7828 55.9609C95.1838 55.9609 94.0575 55.9739 92.4039 56ZM105.158 42.4648H112.638L109.572 33.4414L107.99 36.7226L105.158 42.4648Z" fill="black"/>
<path d="M129.695 56L130.047 51.3711L130.535 41.1172L130.769 33.6758C130.783 32.9987 130.789 32.3151 130.789 31.625C130.789 31.1172 130.783 30.3554 130.769 29.3398C132.436 29.3659 133.79 29.3789 134.832 29.3789C135.665 29.3789 136.824 29.3593 138.309 29.3203C139.793 29.2812 140.971 29.2617 141.844 29.2617C143.641 29.2617 144.962 29.3919 145.809 29.6523C146.707 29.9388 147.495 30.388 148.172 31C148.849 31.6119 149.363 32.3476 149.715 33.207C150.105 34.1705 150.301 35.2057 150.301 36.3125C150.301 37.9922 149.878 39.5221 149.031 40.9023C148.198 42.2695 147.039 43.2916 145.555 43.9687C144.07 44.6458 142.423 44.9843 140.613 44.9843C139.728 44.9843 138.784 44.8932 137.781 44.7109C137.495 43.3567 137.169 42.0872 136.805 40.9023C137.612 41.0716 138.413 41.1562 139.207 41.1562C140.288 41.1562 141.225 40.9935 142.019 40.6679C142.814 40.3424 143.445 39.8151 143.914 39.0859C144.383 38.3437 144.617 37.5104 144.617 36.5859C144.617 36.039 144.519 35.5377 144.324 35.082C144.129 34.6263 143.842 34.2617 143.465 33.9883C143.1 33.7148 142.69 33.5325 142.234 33.4414C141.792 33.3372 141.154 33.2851 140.32 33.2851C139.591 33.2851 138.855 33.2981 138.113 33.3242C137.371 33.3502 136.714 33.3633 136.141 33.3633C135.984 35.9153 135.867 38.3567 135.789 40.6875L135.555 48.1484C135.477 50.7916 135.437 52.7317 135.437 53.9687C135.437 54.4375 135.444 55.1146 135.457 56L132.625 55.9609C132.26 55.9609 131.284 55.9739 129.695 56Z" fill="black"/>
<path d="M156.85 56C157.162 51.5208 157.416 46.931 157.612 42.2304C157.807 37.5169 157.905 33.9166 157.905 31.4297L157.885 29.3398L161.147 29.3789C161.329 29.3789 162.325 29.3659 164.135 29.3398C163.601 36.1888 163.263 45.0755 163.119 56L160.248 55.9609C159.767 55.9609 158.634 55.9739 156.85 56Z" fill="black"/>
<path d="M172.188 56L172.716 49.2031L173.106 40.707L173.36 32.25C173.373 31.8854 173.38 30.9153 173.38 29.3398C174.825 29.3659 176.186 29.3789 177.462 29.3789C178.412 29.3789 179.662 29.3593 181.212 29.3203C182.774 29.2812 184.122 29.2617 185.255 29.2617C186.791 29.2617 188.21 29.3528 189.512 29.5351C190.828 29.7174 191.973 30.0625 192.95 30.5703C193.927 31.0651 194.773 31.6901 195.489 32.4453C196.205 33.2005 196.791 34.0403 197.247 34.9648C197.703 35.8763 198.048 36.8984 198.282 38.0312C198.529 39.151 198.653 40.2968 198.653 41.4687C198.653 43.7083 198.262 45.8437 197.481 47.875C196.713 49.8932 195.561 51.5664 194.024 52.8945C192.488 54.2096 190.782 55.056 188.907 55.4336C187.045 55.8112 184.929 56 182.559 56L175.919 55.9609C175.502 55.9609 174.259 55.9739 172.188 56ZM178.184 51.8398C179.252 51.8919 180.307 51.9179 181.348 51.9179C182.533 51.9179 183.627 51.8593 184.63 51.7422C185.645 51.625 186.518 51.4427 187.247 51.1953C187.976 50.9349 188.705 50.4856 189.434 49.8476C190.177 49.2096 190.782 48.4739 191.251 47.6406C191.719 46.7942 192.078 45.8567 192.325 44.8281C192.572 43.7994 192.696 42.7513 192.696 41.6836C192.696 39.7304 192.364 38.1289 191.7 36.8789C191.036 35.6159 190.157 34.7109 189.063 34.164C187.983 33.6041 186.309 33.3242 184.044 33.3242C182.572 33.3242 180.886 33.3502 178.985 33.4023L178.184 51.8398Z" fill="black"/>
<path d="M204.538 56C204.655 54.2291 204.721 52.7578 204.734 51.5859L205.652 50.5703C205.691 50.5312 206.244 49.8672 207.312 48.5781L216.882 37.1133L219.909 33.3633L218.62 33.3437H218.132L216.433 33.3242H213.464C211.016 33.3242 208.627 33.3958 206.296 33.539C206.374 32.5234 206.413 31.4297 206.413 30.2578C206.413 30.0364 206.407 29.7304 206.394 29.3398C209.792 29.3659 213.399 29.3789 217.214 29.3789L223.737 29.3593L227.292 29.3398C227.188 30.7591 227.123 32.2109 227.097 33.6953L225.769 35.1601C225.508 35.4466 225.254 35.7461 225.007 36.0586L218.034 44.5937L211.921 51.8984L213.484 51.9179C217.885 51.9179 220.717 51.9049 221.98 51.8789C223.243 51.8528 224.623 51.7942 226.12 51.7031C226.016 53.526 225.951 54.9583 225.925 56C222.188 55.9739 218.764 55.9609 215.652 55.9609L208.444 55.9804L204.538 56Z" fill="black"/>
<path d="M234.853 29.6V23.4909H236.917C237.395 23.4909 237.786 23.5724 238.093 23.7355C238.399 23.8966 238.626 24.1183 238.773 24.4007C238.92 24.6831 238.994 25.0042 238.994 25.3642C238.994 25.7241 238.92 26.0433 238.773 26.3217C238.626 26.6001 238.4 26.8189 238.096 26.9779C237.791 27.1351 237.403 27.2136 236.929 27.2136H235.259V26.5454H236.905C237.232 26.5454 237.494 26.4977 237.693 26.4022C237.894 26.3068 238.039 26.1716 238.128 25.9966C238.22 25.8196 238.266 25.6088 238.266 25.3642C238.266 25.1196 238.22 24.9058 238.128 24.7228C238.037 24.5399 237.891 24.3987 237.69 24.2993C237.489 24.1978 237.224 24.1471 236.894 24.1471H235.593V29.6H234.853ZM237.729 26.8556L239.232 29.6H238.373L236.894 26.8556H237.729Z" fill="black"/>
<path d="M242 26.6C242 29.4719 239.672 31.8 236.8 31.8C233.928 31.8 231.6 29.4719 231.6 26.6C231.6 23.7281 233.928 21.4 236.8 21.4C239.672 21.4 242 23.7281 242 26.6Z" stroke="black" stroke-width="0.8"/>
<defs>
<linearGradient id="paint0_linear_653_3459" x1="26.4609" y1="16.3921" x2="26.4609" y2="42.351" gradientUnits="userSpaceOnUse">
<stop stop-color="#D60E17"/>
<stop offset="0.455" stop-color="#C5171D"/>
<stop offset="1" stop-color="#A82024"/>
</linearGradient>
<linearGradient id="paint1_linear_653_3459" x1="44.466" y1="23.6262" x2="45.012" y2="64.8972" gradientUnits="userSpaceOnUse">
<stop stop-color="#D60E17"/>
<stop offset="0.455" stop-color="#C5171D"/>
<stop offset="1" stop-color="#A82024"/>
</linearGradient>
</defs>
</svg>
